<?xml version="1.0" encoding="UTF-8"?>
<svg width="36px" height="35px" viewBox="0 0 36 35" version="1.1" xmlns="http://www.w3.org/2000/svg" xmlns:xlink="http://www.w3.org/1999/xlink">
    <title>select_one3</title>
    <g id="页面-1" stroke="none" stroke-width="1" fill="none" fill-rule="evenodd">
        <g id="select_one3" transform="translate(1.000000, 1.000000)">
            <g id="编组" transform="translate(17.000000, 16.500000) scale(-1, 1) translate(-17.000000, -16.500000) ">
                <g transform="translate(0.500000, 0.500000)">
                    <path d="M25.7,0.9 C27.5,0.9 29.1,1.6 30.2,2.8 C31.3,4 32.1,5.6 32.1,7.3 L32.1,7.3 L32.1,25.6 C32.1,27.4 31.4,29 30.2,30.1 C29,31.3 27.4,32 25.7,32 L25.7,32 L7.3,32 C5.5,32 3.9,31.3 2.8,30.1 C1.6,28.9 0.9,27.3 0.9,25.6 L0.9,25.6 L0.9,7.3 C0.9,5.5 1.6,3.9 2.8,2.8 C4,1.7 5.6,0.9 7.3,0.9 L7.3,0.9 L25.7,0.9 Z" id="Path" stroke="#FFFFFF" stroke-width="1.8333"></path>
                    <path d="M18.2,23.6 L23.6,18 C23.9,17.7 23.9,17.1 23.6,16.8 L22.4,15.6 C22.1,15.3 21.6,15.3 21.2,15.6 L17.6,19.4 L9.9,11.3 C9.6,11 9.1,11 8.7,11.3 L7.5,12.5 C7.2,12.8 7.2,13.4 7.5,13.7 L17,23.6 C17.4,23.9 17.9,23.9 18.2,23.6 L18.2,23.6 Z" id="Shape" fill="#FFFFFF"></path>
                </g>
            </g>
        </g>
    </g>
</svg>