<?xml version="1.0" encoding="utf-8"?>
<!-- Generator: Adobe Illustrator 23.0.1, SVG Export Plug-In . SVG Version: 6.00 Build 0)  -->
<svg version="1.1" id="图层_1" xmlns="http://www.w3.org/2000/svg" xmlns:xlink="http://www.w3.org/1999/xlink" x="0px" y="0px"
	 viewBox="0 0 44 44" style="enable-background:new 0 0 44 44;" xml:space="preserve">
<style type="text/css">
	.st0{fill:none;stroke:#FFFFFF;stroke-width:1.8333;}
	.st1{fill-rule:evenodd;clip-rule:evenodd;fill:#FFFFFF;}
</style>
<title>编辑态-选框 2</title>
<g id="页面-1">
	<g id="编辑态-选框-2">
		<g id="编辑态-选框">
			<g>
				
					<g transform="translate(22.000000, 22.000000) scale(-1, 1) translate(-22.000000, -22.000000) translate(-0.000000, 0.000000)">
					<g id="编组" transform="translate(5.500000, 5.500000)">
						<path id="Path" class="st0" d="M24.7,1.9c1.8,0,3.4,0.7,4.5,1.9s1.9,2.8,1.9,4.5l0,0v18.3c0,1.8-0.7,3.4-1.9,4.5
							c-1.2,1.2-2.8,1.9-4.5,1.9l0,0H6.3c-1.8,0-3.4-0.7-4.5-1.9c-1.2-1.2-1.9-2.8-1.9-4.5l0,0V8.3c0-1.8,0.7-3.4,1.9-4.5
							s2.8-1.9,4.5-1.9l0,0H24.7z"/>
						<path id="Shape" class="st1" d="M17.2,24.6l5.4-5.6c0.3-0.3,0.3-0.9,0-1.2l-1.2-1.2c-0.3-0.3-0.8-0.3-1.2,0l-3.6,3.8l-7.7-8.1
							c-0.3-0.3-0.8-0.3-1.2,0l-1.2,1.2c-0.3,0.3-0.3,0.9,0,1.2l9.5,9.9C16.4,24.9,16.9,24.9,17.2,24.6L17.2,24.6z"/>
					</g>
				</g>
			</g>
		</g>
	</g>
</g>
</svg>
